<?xml version="1.0" encoding="utf-8" standalone="no"?>
<!DOCTYPE svg PUBLIC "-//W3C//DTD SVG 1.1//EN"
  "http://www.w3.org/Graphics/SVG/1.1/DTD/svg11.dtd">
<svg xmlns:xlink="http://www.w3.org/1999/xlink" width="507.6pt" height="169.2pt" viewBox="0 0 507.6 169.2" xmlns="http://www.w3.org/2000/svg" version="1.1">
 <metadata>
  <rdf:RDF xmlns:dc="http://purl.org/dc/elements/1.1/" xmlns:cc="http://creativecommons.org/ns#" xmlns:rdf="http://www.w3.org/1999/02/22-rdf-syntax-ns#">
   <cc:Work>
    <dc:type rdf:resource="http://purl.org/dc/dcmitype/StillImage"/>
    <dc:date>2026-10-04T19:51:31.606842</dc:date>
    <dc:format>image/svg+xml</dc:format>
    <dc:creator>
     <cc:Agent>
      <dc:title>Matplotlib v3.9.2, https://matplotlib.org/</dc:title>
     </cc:Agent>
    </dc:creator>
   </cc:Work>
  </rdf:RDF>
 </metadata>
 <defs>
  <style type="text/css">*{stroke-linejoin: round; stroke-linecap: butt}</style>
 </defs>
 <g id="figure_1">
  <g id="patch_1">
   <path d="M 0 169.2
L 507.6 169.2
L 507.6 0
L 0 0
z
" style="fill: #ffffff"/>
  </g>
  <g id="axes_1">
   <g id="patch_2">
    <path d="M 45.684 126.9
L 249.40687 126.9
L 249.40687 33.84
L 45.684 33.84
z
" style="fill: #ffffff"/>
   </g>
   <g id="matplotlib.axis_1">
    <g id="xtick_1">
     <g id="line2d_1">
      <defs>
       <path id="mdc1ee7ef07" d="M 0 0
L 0 3
" style="stroke: #000000; stroke-width: 0.5"/>
      </defs>
      <g>
       <use xlink:href="#mdc1ee7ef07" x="96.614717" y="126.9" style="stroke: #000000; stroke-width: 0.5"/>
      </g>
     </g>
     <g id="text_1">
      <text style="font: 7.4px 'DejaVu Serif'; text-anchor: middle" x="96.614717" y="139.022844" transform="rotate(-0 96.614717 139.022844)">Full Argus</text>
     </g>
    </g>
    <g id="xtick_2">
     <g id="line2d_2">
      <g>
       <use xlink:href="#mdc1ee7ef07" x="198.476152" y="126.9" style="stroke: #000000; stroke-width: 0.5"/>
      </g>
     </g>
     <g id="text_2">
      <text style="font: 7.4px 'DejaVu Serif'; text-anchor: middle" x="198.476152" y="139.022844" transform="rotate(-0 198.476152 139.022844)">Native SPIRE</text>
     </g>
    </g>
   </g>
   <g id="matplotlib.axis_2">
    <g id="text_3">
     <text style="fill: #172331; font: 8px 'DejaVu Serif'; text-anchor: middle" x="39.9065" y="80.37" transform="rotate(-90 39.9065 80.37)">Valid-request latency (ms)</text>
    </g>
   </g>
   <g id="patch_3">
    <path d="M 45.684 126.9
L 45.684 33.84
" style="fill: none; stroke: #000000; stroke-width: 0.55; stroke-linejoin: miter; stroke-linecap: square"/>
   </g>
   <g id="patch_4">
    <path d="M 45.684 126.9
L 249.40687 126.9
" style="fill: none; stroke: #000000; stroke-width: 0.55; stroke-linejoin: miter; stroke-linecap: square"/>
   </g>
   <g id="text_4">
    <text style="fill: #687682; font: 10px 'DejaVu Serif'; text-anchor: middle" x="147.545435" y="76.615175" transform="rotate(-0 147.545435 76.615175)">DATA PENDING</text>
   </g>
   <g id="text_5">
    <text style="fill: #8c969e; font: 7px 'DejaVu Serif'; text-anchor: middle" x="147.545435" y="89.746363" transform="rotate(-0 147.545435 89.746363)">Axes scale to recorded observations</text>
   </g>
   <g id="text_6">
    <text style="fill: #172331; font: 700 8.6px 'DejaVu Serif'; text-anchor: start" x="45.684" y="25.84" transform="rotate(-0 45.684 25.84)">(a) New TLS connection</text>
   </g>
  </g>
  <g id="axes_2">
   <g id="patch_5">
    <path d="M 296.26313 126.9
L 499.986 126.9
L 499.986 33.84
L 296.26313 33.84
z
" style="fill: #ffffff"/>
   </g>
   <g id="matplotlib.axis_3">
    <g id="xtick_3">
     <g id="line2d_3">
      <g>
       <use xlink:href="#mdc1ee7ef07" x="347.193848" y="126.9" style="stroke: #000000; stroke-width: 0.5"/>
      </g>
     </g>
     <g id="text_7">
      <text style="font: 7.4px 'DejaVu Serif'; text-anchor: middle" x="347.193848" y="139.022844" transform="rotate(-0 347.193848 139.022844)">Full Argus</text>
     </g>
    </g>
    <g id="xtick_4">
     <g id="line2d_4">
      <g>
       <use xlink:href="#mdc1ee7ef07" x="449.055283" y="126.9" style="stroke: #000000; stroke-width: 0.5"/>
      </g>
     </g>
     <g id="text_8">
      <text style="font: 7.4px 'DejaVu Serif'; text-anchor: middle" x="449.055283" y="139.022844" transform="rotate(-0 449.055283 139.022844)">Native SPIRE</text>
     </g>
    </g>
   </g>
   <g id="matplotlib.axis_4"/>
   <g id="patch_6">
    <path d="M 296.26313 126.9
L 296.26313 33.84
" style="fill: none; stroke: #000000; stroke-width: 0.55; stroke-linejoin: miter; stroke-linecap: square"/>
   </g>
   <g id="patch_7">
    <path d="M 296.26313 126.9
L 499.986 126.9
" style="fill: none; stroke: #000000; stroke-width: 0.55; stroke-linejoin: miter; stroke-linecap: square"/>
   </g>
   <g id="text_9">
    <text style="fill: #687682; font: 10px 'DejaVu Serif'; text-anchor: middle" x="398.124565" y="76.615175" transform="rotate(-0 398.124565 76.615175)">DATA PENDING</text>
   </g>
   <g id="text_10">
    <text style="fill: #8c969e; font: 7px 'DejaVu Serif'; text-anchor: middle" x="398.124565" y="89.746363" transform="rotate(-0 398.124565 89.746363)">Axes scale to recorded observations</text>
   </g>
   <g id="text_11">
    <text style="fill: #172331; font: 700 8.6px 'DejaVu Serif'; text-anchor: start" x="296.26313" y="25.84" transform="rotate(-0 296.26313 25.84)">(b) Reused TLS connection</text>
   </g>
  </g>
  <g id="text_12">
   <text style="fill: #48545f; font: 7px 'DejaVu Serif'; text-anchor: start" x="45.684" y="163.278" transform="rotate(-0 45.684 163.278)">Dots show individual runs; short lines show medians. Request outcomes and resources are in Table S2.</text>
  </g>
  <g id="legend_1">
   <g id="line2d_5">
    <path d="M 200.362594 9.823828
L 207.862594 9.823828
L 215.362594 9.823828
" style="fill: none"/>
    <defs>
     <path id="me0ea20b971" d="M 0 3
C 0.795609 3 1.55874 2.683901 2.12132 2.12132
C 2.683901 1.55874 3 0.795609 3 0
C 3 -0.795609 2.683901 -1.55874 2.12132 -2.12132
C 1.55874 -2.683901 0.795609 -3 0 -3
C -0.795609 -3 -1.55874 -2.683901 -2.12132 -2.12132
C -2.683901 -1.55874 -3 -0.795609 -3 0
C -3 0.795609 -2.683901 1.55874 -2.12132 2.12132
C -1.55874 2.683901 -0.795609 3 0 3
z
" style="stroke: #465361"/>
    </defs>
    <g>
     <use xlink:href="#me0ea20b971" x="207.862594" y="9.823828" style="fill: #ffffff; stroke: #465361"/>
    </g>
   </g>
   <g id="text_13">
    <text style="fill: #172331; font: 7.5px 'DejaVu Serif'; text-anchor: start" x="221.362594" y="12.448828" transform="rotate(-0 221.362594 12.448828)">Per-run p50</text>
   </g>
   <g id="line2d_6">
    <path d="M 281.604 9.823828
L 289.104 9.823828
L 296.604 9.823828
" style="fill: none"/>
    <defs>
     <path id="m9095af8bfa" d="M -3 3
L 3 3
L 3 -3
L -3 -3
z
" style="stroke: #465361; stroke-linejoin: miter"/>
    </defs>
    <g>
     <use xlink:href="#m9095af8bfa" x="289.104" y="9.823828" style="fill: #465361; stroke: #465361; stroke-linejoin: miter"/>
    </g>
   </g>
   <g id="text_14">
    <text style="fill: #172331; font: 7.5px 'DejaVu Serif'; text-anchor: start" x="302.604" y="12.448828" transform="rotate(-0 302.604 12.448828)">Per-run p95</text>
   </g>
  </g>
 </g>
</svg>
